<svg width="104" height="104" viewBox="0 0 104 104" fill="none" xmlns="http://www.w3.org/2000/svg">
<path d="M61.2364 0C60.4844 0 59.7861 0.161788 59.1415 0.377494C60.5112 1.29426 61.2633 2.50765 61.6393 3.8828C61.6662 4.07155 61.7198 4.20637 61.7467 4.39511C61.7737 4.5569 61.8004 4.71868 61.8004 4.88047C61.9079 7.25329 61.1827 7.54989 60.6724 8.95201C59.8935 10.7586 60.1083 12.7 61.0484 14.2639C61.129 14.4527 61.2364 14.6684 61.3707 14.8571C60.3501 8.03524 66.0172 7.01061 67.0646 4.88047C67.1452 3.01996 65.6143 1.77962 64.4057 0.916771C63.2508 0.215712 62.2033 0 61.2364 0ZM69.7773 1.53694C69.6698 2.15711 69.7504 1.99533 69.7236 2.3189C69.6967 2.5346 69.6967 2.80425 69.6699 3.01996C69.6163 3.23567 69.5625 3.45138 69.4819 3.6671C69.4283 3.8828 69.3476 4.09852 69.2671 4.31422C69.1596 4.52994 69.0791 4.71868 68.9716 4.93439C68.8911 5.04229 68.8373 5.1501 68.7568 5.25796C68.7031 5.33886 68.6493 5.41975 68.5956 5.50064C68.4613 5.68939 68.327 5.87813 68.1927 6.03991C68.0316 6.2017 67.8973 6.39044 67.7093 6.52527V6.55227C67.5481 6.68709 67.387 6.84887 67.199 6.98369C66.635 7.41511 65.9904 7.73868 65.3995 8.14314C65.2115 8.27795 65.0235 8.38582 64.8623 8.5476C64.6743 8.68241 64.5132 8.81723 64.352 8.97902C64.164 9.1408 64.0297 9.30259 63.8686 9.49133C63.7343 9.65312 63.5731 9.84186 63.4657 10.0306C63.3314 10.2194 63.1971 10.4081 63.0897 10.5968C62.9822 10.8126 62.9017 11.0013 62.7942 11.217C62.7137 11.4327 62.6331 11.6215 62.5794 11.8372C62.4988 12.0799 62.4451 12.2956 62.3914 12.5113C62.3645 12.6192 62.3645 12.754 62.3377 12.8618C62.3108 12.9697 62.3108 13.0775 62.284 13.1854C62.284 13.4011 62.2571 13.6438 62.2571 13.8595C62.2571 14.0213 62.2571 14.1831 62.284 14.3448C62.284 14.5605 62.3109 14.7763 62.3646 15.0189C62.3915 15.2346 62.4452 15.4503 62.4989 15.6661C62.5795 15.8818 62.6332 16.0975 62.7138 16.3132C62.7674 16.448 62.848 16.5828 62.9018 16.6907L56.7244 14.2909C55.6769 13.9943 54.6563 13.7247 53.6088 13.482C53.0448 13.3472 52.4808 13.2123 51.9168 13.0775C50.3053 12.754 48.667 12.5113 47.0286 12.3495C46.9749 12.3495 46.948 12.3225 46.8943 12.3225C45.2828 12.1607 43.6982 12.0798 42.0867 12.0798C40.9049 12.0798 39.7232 12.1337 38.5683 12.2147C36.9299 12.3226 35.2916 12.5382 33.6532 12.8079C33.2504 12.8617 32.8475 12.9427 32.4446 13.0236C31.612 13.1853 30.8063 13.3741 30.0274 13.5629C29.6245 13.6708 29.2216 13.7786 28.8188 13.8864C28.4159 14.0482 28.0399 14.2369 27.6639 14.3987C27.3684 14.5335 27.073 14.6684 26.7775 14.8032C26.7239 14.8302 26.6701 14.8302 26.6433 14.8571C26.3747 14.9919 26.1329 15.0997 25.8912 15.2346C25.8107 15.2616 25.7569 15.2885 25.7032 15.3155C25.4078 15.4503 25.1123 15.6121 24.8706 15.7469C24.6826 15.8278 24.4946 15.9356 24.3335 16.0165C24.2529 16.0704 24.1454 16.1244 24.0917 16.1513C23.85 16.2862 23.6083 16.421 23.3934 16.5558C23.1517 16.6906 22.9368 16.8254 22.7488 16.9603C22.5608 17.0951 22.3728 17.2029 22.2117 17.3377C22.1847 17.3647 22.158 17.3647 22.1311 17.3916C21.9699 17.4995 21.7819 17.6343 21.6208 17.7691C21.6208 17.7691 21.5939 17.7961 21.5671 17.823C21.4328 17.9309 21.2985 18.0387 21.1642 18.1466C21.1106 18.1736 21.0568 18.2275 21.0031 18.2545C20.8688 18.3624 20.7345 18.4972 20.6002 18.605C20.5733 18.6589 20.5196 18.6859 20.4927 18.7129C20.3316 18.8747 20.1704 19.0095 20.0093 19.1713C19.9824 19.1713 19.9824 19.1983 19.9556 19.2252C19.7945 19.36 19.6333 19.5218 19.4722 19.6836C19.4453 19.7106 19.4453 19.7375 19.4185 19.7375C19.2842 19.8723 19.1499 20.0071 19.0156 20.1689C18.9619 20.2228 18.8813 20.2768 18.8276 20.3307C18.6933 20.4924 18.5322 20.6542 18.371 20.816C18.3441 20.8699 18.2904 20.8969 18.2635 20.9508C18.0487 21.1666 17.8607 21.3823 17.6458 21.598C17.6189 21.625 17.5921 21.6519 17.5652 21.6789C17.1355 22.1372 16.6789 22.5956 16.1955 23.0001C15.712 23.4315 15.2017 23.836 14.6914 24.1865C14.1542 24.564 13.6439 24.8876 13.0799 25.2111C12.5428 25.5077 11.9787 25.7774 11.3879 26.0201C10.8238 26.2627 10.233 26.4784 9.64208 26.6672C8.51403 26.9098 7.35913 27.3682 6.36538 27.4491C6.15052 27.4491 5.90879 27.503 5.69393 27.53C5.4522 27.5839 5.23734 27.6379 5.02248 27.6918C4.80762 27.7727 4.59274 27.8536 4.37788 27.9345C4.16301 28.0154 3.94815 28.1232 3.73329 28.2311C3.54528 28.3659 3.33041 28.4738 3.1424 28.6086C2.9544 28.7434 2.76639 28.9052 2.60524 29.067C2.41724 29.2018 2.22923 29.3905 2.06808 29.5523C1.90692 29.7411 1.74578 29.9029 1.61149 30.0916C1.4772 30.3073 1.31605 30.4961 1.20861 30.7118C1.07432 30.9005 0.940037 31.1162 0.832599 31.3319C0.725123 31.5746 0.617737 31.7903 0.537161 32.033C0.456586 32.2487 0.376011 32.4914 0.295436 32.7341C0.241762 32.9498 0.187961 33.1655 0.161149 33.3812C0.161149 33.4082 0.134249 33.4351 0.134249 33.4621C0.0805745 33.7048 0.0805745 34.0283 0.053674 34.1901C0.0267745 34.3789 0 34.5406 0 34.7294C0 34.8373 0 34.9721 0.0268995 35.0799C0.053799 35.2687 0.0805734 35.4305 0.134375 35.5923C0.188049 35.754 0.24185 35.9158 0.322375 36.0776V36.1046C0.40295 36.2664 0.510388 36.4282 0.617813 36.5899C0.725288 36.7517 0.832688 36.9135 0.966975 37.0753C1.10126 37.2101 1.26241 37.3719 1.42356 37.5067C1.58471 37.6685 1.74586 37.8033 1.93386 37.9381C2.57846 38.5044 2.73961 38.6931 3.57222 39.1245C3.7065 39.2054 3.8408 39.2594 4.00195 39.3403C4.02886 39.3403 4.05563 39.3673 4.08253 39.3673C4.08253 39.4211 4.08253 39.4482 4.10943 39.5021C4.13633 39.7178 4.19001 39.9335 4.24372 40.1492C4.29739 40.3919 4.37802 40.6076 4.4586 40.7964C4.53917 40.9581 4.59288 41.1199 4.67346 41.2817C4.70036 41.3356 4.72713 41.3896 4.75403 41.4165C4.86151 41.6322 4.9689 41.821 5.07632 42.0097C5.21062 42.1985 5.34491 42.3872 5.4792 42.576C5.61348 42.7378 5.77463 42.9265 5.93578 43.0883C6.09693 43.2501 6.25808 43.3849 6.4461 43.5467C6.4461 43.5467 6.473 43.5737 6.49977 43.5737C6.66092 43.7085 6.82207 43.8434 6.98322 43.9512C7.17122 44.086 7.35923 44.1939 7.5741 44.3017C7.76211 44.4096 7.97697 44.5174 8.19183 44.5983C8.35299 44.6792 8.54098 44.7332 8.729 44.7871C8.7559 44.8141 8.78267 44.8141 8.83647 44.841C8.94395 44.868 9.07819 44.8949 9.18562 44.9219C9.10505 46.3779 9.07815 47.7531 9.2931 48.2384C9.53481 48.7777 10.7166 47.1329 11.8983 45.2454C11.7372 47.1059 11.6298 49.29 11.8983 49.9372C12.1938 50.6112 13.8053 48.5081 15.2019 46.1892C34.2443 41.7671 51.6216 54.9794 53.4479 73.6384C53.0988 70.7263 49.5266 69.1085 47.8883 69.5129C47.0825 71.5083 45.7128 74.0698 43.5104 75.6607C43.6984 73.8811 43.6179 72.0476 43.2418 70.2679C42.6509 72.7486 41.496 75.0675 39.9114 77.0628C37.3599 77.2516 34.8083 76.0112 33.4654 74.1507C33.358 74.0698 33.3311 73.9081 33.2506 73.8002C33.17 73.6114 33.0894 73.4227 33.0357 73.234C32.9551 73.0452 32.9014 72.8565 32.8746 72.6677C32.8476 72.479 32.8476 72.2902 32.8476 72.0745C32.8476 71.9397 32.8476 71.8049 32.8476 71.6701C32.8746 71.4813 32.9282 71.2926 32.9819 71.1038C33.0356 70.9151 33.0894 70.7263 33.1699 70.5376C33.2774 70.3488 33.3579 70.1601 33.4922 69.9713C33.9488 68.677 33.9488 67.6255 33.1162 67.0053C32.9551 66.8974 32.7939 66.8165 32.6059 66.7357C32.4984 66.7087 32.3642 66.6548 32.2568 66.6278C32.1762 66.6008 32.1225 66.5739 32.0419 66.5469C31.8539 66.493 31.6659 66.439 31.4779 66.412C31.2899 66.3582 31.1019 66.3312 30.9139 66.3312C30.7259 66.3041 30.511 66.2773 30.323 66.2773C30.1887 66.2773 30.0544 66.3043 29.9201 66.3043C29.7052 66.3043 29.5172 66.3313 29.3292 66.3852C29.1412 66.4122 28.9532 66.439 28.7652 66.493C28.5772 66.5469 28.3892 66.6009 28.2012 66.6818C28.0132 66.7627 27.852 66.8436 27.664 66.9245C27.5029 67.0054 27.3417 67.1132 27.1537 67.1941C20.8958 71.2926 24.6291 80.8918 28.8995 83.6691C27.288 83.9657 25.6497 84.3162 25.1931 84.6667C25.1662 84.6937 25.1394 84.7206 25.1394 84.7206C26.2943 85.4217 27.5029 86.0149 28.7652 86.5272C30.4842 87.0934 32.3105 87.6057 33.1163 87.8215V87.8485C35.3455 88.3068 37.6016 88.4686 39.8845 88.3338C51.7827 87.4979 61.5322 78.4111 63.3049 66.4391C63.3585 66.6818 63.4123 66.8975 63.466 67.1402C63.5466 67.6255 63.654 68.1378 63.7077 68.6502V68.6772C63.7614 68.9199 63.7883 69.1625 63.8152 69.3783V69.4862C63.8421 69.7288 63.8689 69.9715 63.8689 70.1872C63.8958 70.4838 63.9225 70.7804 63.9225 71.077V71.5084C63.9225 71.6433 63.9494 71.805 63.9494 71.9399C63.9494 72.1017 63.9225 72.2634 63.9225 72.4252V72.8027C63.9225 72.9915 63.8956 73.1532 63.8956 73.342C63.8956 73.4499 63.8956 73.5577 63.8687 73.6925C63.8687 73.8813 63.8418 74.07 63.8418 74.2857C63.8149 74.3666 63.8149 74.4475 63.8149 74.5284C63.788 74.7441 63.7612 74.9329 63.7343 75.1486C63.7343 75.2295 63.7343 75.3104 63.7074 75.3913C63.6805 75.6609 63.6269 75.9036 63.6 76.1732V76.2002V76.2272C63.5463 76.4699 63.4925 76.7395 63.4388 76.9822V77.0631C63.3851 77.3058 63.3313 77.5485 63.2777 77.7911C63.2777 77.8182 63.2508 77.872 63.2508 77.899C63.1971 78.1417 63.1433 78.3844 63.0628 78.6271V78.708C62.9822 78.9776 62.9016 79.2203 62.8479 79.4629C62.821 79.4899 62.821 79.5168 62.821 79.5168C62.7404 79.7865 62.6599 80.0561 62.5793 80.3257C62.4718 80.5954 62.3913 80.8381 62.2839 81.1077C62.1764 81.3773 62.0958 81.647 61.9884 81.8897C61.8809 82.1593 61.7735 82.402 61.6661 82.6716H61.6392C61.5317 82.9143 61.4243 83.1839 61.29 83.4266C61.2631 83.5075 61.2363 83.5614 61.2094 83.6153C61.1825 83.6424 61.1825 83.6692 61.1558 83.6962C59.41 87.2285 56.8316 90.3294 53.6086 92.7561C53.3938 92.8909 53.1789 93.0527 52.964 93.2145C52.9104 93.2684 52.8297 93.2954 52.776 93.3493C52.588 93.4841 52.4 93.6189 52.1851 93.7538L52.2657 93.9156H52.2926C52.6686 93.8617 53.0446 93.8077 53.4207 93.7538H53.4475C54.1459 93.6459 54.8442 93.5111 55.5425 93.3763C55.7305 93.3492 55.9454 93.2954 56.1334 93.2414C56.2676 93.2144 56.3751 93.1876 56.5094 93.1606C56.6974 93.1335 56.8854 93.0797 57.0734 93.0527C57.2345 92.9988 57.3957 92.9718 57.5568 92.9178C60.2427 92.2707 62.8479 91.3809 65.3457 90.3293C61.0753 96.1805 55.3545 100.899 48.6668 104C51.7555 103.784 54.8442 103.272 57.8254 102.409C68.6493 99.2004 77.7542 91.8932 83.2064 82.0514C82.1052 88.2801 79.6342 94.2121 75.9815 99.3892C78.5868 97.6635 80.9772 95.6681 83.1527 93.4032C89.1689 87.0936 93.1171 79.0854 94.4599 70.4839C95.3731 74.7442 95.6417 79.1393 95.2388 83.4805C114.63 56.3278 96.8503 28.1775 89.4106 20.7624C89.3837 20.7086 89.3569 20.6815 89.3569 20.6276C89.33 20.6546 89.33 20.6546 89.33 20.6815C89.33 20.6545 89.33 20.6545 89.3031 20.6276C89.3031 20.9512 89.2762 21.2747 89.2494 21.5983C89.1689 22.2185 89.0883 22.8117 88.9809 23.4049C88.8466 23.9981 88.6854 24.5913 88.5243 25.1845C88.3363 25.7508 88.1214 26.344 87.8797 26.9102C87.638 27.4495 87.3694 28.0157 87.0739 28.555C86.7785 29.0673 86.4562 29.6066 86.107 30.0919C85.7579 30.6043 85.3819 31.0896 85.0059 31.548C84.603 32.0333 84.1733 32.4648 83.7435 32.8962C83.4749 33.1389 83.2332 33.3546 82.9646 33.5703C82.7498 33.759 82.5618 33.9208 82.3469 34.1096C81.8634 34.4871 81.38 34.8376 80.8428 35.1612C80.3325 35.4847 79.7954 35.8083 79.2582 36.0779C78.6942 36.3476 78.1302 36.5902 77.5662 36.8329C77.0021 37.0486 76.4113 37.2374 75.8204 37.3992C75.2295 37.5609 74.6118 37.6958 74.0209 37.8036C73.4031 37.9115 72.7854 37.9654 72.1945 38.0193C71.7648 38.0463 71.3351 38.0732 70.9053 38.0732C70.2876 38.0732 69.6699 38.0193 69.079 37.9653C68.4612 37.9114 67.8435 37.8305 67.2526 37.6957C66.6349 37.5878 66.044 37.426 65.4531 37.2373H65.4262C66.0171 37.1834 66.608 37.1294 67.1989 37.0216C67.8166 36.9137 68.4075 36.7789 68.9984 36.6171C69.5892 36.4553 70.1801 36.2666 70.7441 36.0509C71.335 35.8352 71.899 35.5655 72.4362 35.2959C73.0002 35.0262 73.5105 34.7296 74.0477 34.4061C74.558 34.0555 75.0683 33.705 75.5517 33.3275C76.0352 32.95 76.4918 32.5456 76.9215 32.1142C77.3781 31.7097 77.781 31.2513 78.1839 30.7929C78.5867 30.3076 78.9627 29.8222 79.3119 29.3369C79.3656 29.256 79.4194 29.1481 79.4731 29.0672C79.7416 28.6358 80.0102 28.2044 80.2519 27.773C80.5474 27.2337 80.816 26.6944 81.0577 26.1282C81.2994 25.5619 81.5143 24.9957 81.7023 24.4025C81.8903 23.8362 82.0246 23.243 82.1589 22.6498C82.2663 22.0297 82.3737 21.4364 82.4274 20.8432C82.4811 20.2231 82.5349 19.6029 82.5349 19.0097C82.5349 18.5783 82.508 18.1469 82.4812 17.7154C82.4276 17.0953 82.3469 16.5021 82.2664 15.9089C82.1589 15.2887 82.0247 14.6955 81.8635 14.1023C81.6755 13.536 81.4875 12.9428 81.2726 12.3766C81.0577 11.8103 80.7892 11.2441 80.5206 10.7048C80.2251 10.1655 79.9297 9.62626 79.6074 9.11395C79.2583 8.60164 78.9091 8.11629 78.5331 7.63093C78.1302 7.17255 77.7273 6.71416 77.2976 6.25578C77.0827 6.04007 76.841 5.79739 76.5993 5.58168C75.3907 4.63794 74.1283 3.74813 72.866 2.93922C72.678 2.83132 72.5169 2.75047 72.3289 2.66957C71.4425 2.10334 70.6099 1.80657 69.7773 1.53694Z" fill="#00DF5E"/>
</svg>
