<svg width="24" height="24" viewBox="0 0 24 24" fill="none" xmlns="http://www.w3.org/2000/svg">
<path d="M22.0001 16.9202V19.9202C22.0012 20.1987 21.9441 20.4743 21.8326 20.7295C21.721 20.9847 21.5574 21.2137 21.3521 21.402C21.1469 21.5903 20.9046 21.7336 20.6408 21.8229C20.377 21.9121 20.0974 21.9452 19.8201 21.9202C16.7429 21.5858 13.7871 20.5343 11.1901 18.8502C8.77388 17.3148 6.72539 15.2663 5.19006 12.8502C3.50003 10.2414 2.4483 7.27115 2.12006 4.18016C2.09507 3.90363 2.12793 3.62492 2.21656 3.36178C2.30518 3.09865 2.44763 2.85685 2.63482 2.65178C2.82202 2.44671 3.04986 2.28287 3.30385 2.17068C3.55783 2.05849 3.8324 2.00042 4.11006 2.00016H7.11006C7.59536 1.99538 8.06585 2.16724 8.43382 2.48369C8.80179 2.80014 9.04213 3.2396 9.11005 3.72016C9.23668 4.68022 9.47151 5.62289 9.81006 6.53016C9.9446 6.88808 9.97372 7.27707 9.89396 7.65104C9.81421 8.025 9.62892 8.36827 9.36005 8.64016L8.09006 9.91016C9.51361 12.4137 11.5865 14.4866 14.0901 15.9102L15.3601 14.6402C15.6319 14.3713 15.9752 14.186 16.3492 14.1063C16.7231 14.0265 17.1121 14.0556 17.4701 14.1902C18.3773 14.5287 19.32 14.7635 20.2801 14.8902C20.7658 14.9587 21.2095 15.2034 21.5266 15.5777C21.8437 15.9519 22.0122 16.4297 22.0001 16.9202Z" stroke="#00DF5E" stroke-width="1.48312" stroke-linecap="round" stroke-linejoin="round"/>
</svg>
