<svg width="267" height="117" viewBox="0 0 267 117" fill="none" xmlns="http://www.w3.org/2000/svg">
<path d="M180.381 0L179.546 4.36684C178.256 12.6426 178.723 15.0103 182.261 18.0816L185.676 20.9184L182.138 36.7552C180.025 46.2036 177.433 54.122 175.786 56.7242C174.373 58.9691 172.727 62.2749 172.371 64.0507C171.781 66.1727 169.779 68.3058 166.719 70.1933C164.016 71.7345 158.709 75.8668 154.949 79.1838C151.945 81.8978 149.876 83.5618 148.752 84.2766L145.081 87.1916C143.902 89.0902 143.234 90.6203 142.979 91.7818C142.723 92.9768 142.867 93.7697 143.246 94.3505C143.613 94.9089 144.247 95.2998 145.114 95.5455C146.142 95.7872 147.199 95.8738 148.252 95.8024C150.633 95.6391 152.99 95.2197 155.283 94.5515C156.062 94.3393 156.673 94.1383 157.207 93.9596C158.031 92.9433 159.933 91.0223 163.304 87.683C172.248 78.8264 175.664 73.9794 172.137 75.2861C170.835 75.7551 171.425 74.5713 173.661 72.2036C178.378 67.5911 181.082 60.622 186.733 38.7655C191.205 21.5103 191.205 21.2646 194.498 21.2646C196.045 21.2646 200.417 21.5326 200.417 21.5326V0H190.382H180.381ZM223.09 35.3479C222.378 35.3479 221.198 36.4201 220.497 37.6039C219.207 39.7259 220.731 41.0215 240.155 53.195C251.692 60.5326 260.992 66.7869 260.759 67.2672C260.525 67.6134 251.102 73.7672 239.81 80.8591C219.318 93.6134 219.207 93.7362 221.087 96.3385C223.446 99.4098 221.087 100.471 247.687 83.8075L267 71.3995V62.0627L245.451 48.7053C233.803 41.3789 223.679 35.4708 223.09 35.3479ZM44.144 36.6546C43.5544 36.6546 33.4306 42.6856 21.7827 49.8892L0 63.2466V72.5833L21.6604 86.1752C33.6754 93.6134 43.7991 99.7672 44.2664 99.7672C44.7336 99.7672 45.6792 98.695 46.6249 97.3995C48.0377 95.1546 46.8474 94.2053 26.9559 81.5627C8.01 69.6237 6.0075 67.9708 7.89875 66.6753C9.078 65.8488 18.0225 60.2869 27.679 54.2672C49.6954 40.6753 48.5161 41.6134 46.7473 38.7766C46.0464 37.6039 44.856 36.5429 44.1551 36.6546H44.144ZM140.754 36.9115C137.505 36.8892 130.519 41.8591 109.604 59.0026C108.702 61.1581 108.624 62.6435 109.036 63.6039C109.303 64.2629 109.793 64.7208 110.471 65.0558C111.139 65.3909 112.007 65.5919 112.963 65.6701C114.866 65.8376 117.113 65.5361 118.926 65.1787L120.15 64.8995C120.569 64.3355 121.119 63.8831 121.752 63.5816C123.043 62.8668 128.46 57.9081 133.878 52.5919C143.412 42.8978 145.649 38.5198 141.766 37.1014C141.447 36.9741 141.096 36.9097 140.754 36.9115ZM165.184 43.646C162.325 43.7242 157.174 47.0524 148.352 54.122C143.924 57.7294 141.121 59.6727 139.619 60.0747L133.789 64.6984C131.598 68.7191 131.275 71.2096 131.854 72.5833C131.998 72.9222 132.209 73.2289 132.472 73.4858C132.736 73.7426 133.047 73.9446 133.389 74.0799C134.239 74.4168 135.145 74.5874 136.059 74.5825C138.242 74.5591 140.413 74.2398 142.511 73.6331C143.605 73.3385 144.685 72.9957 145.749 72.6057L146.071 72.4716L146.661 72.1589C147.773 70.7182 150.332 68.0043 153.536 64.8771C163.66 55.0713 168.833 48.1022 167.776 45.5C167.298 44.238 166.474 43.6014 165.184 43.646ZM138.217 55.7079C137.394 55.7972 135.547 57.2268 132.221 60.1529C127.415 64.4192 122.175 66.8763 120.361 65.7818C119.94 65.8774 119.517 65.9667 119.093 66.0498C117.246 66.4184 114.944 66.7199 112.885 66.5524C111.916 66.4934 110.965 66.2549 110.082 65.8488C109.249 65.4664 108.584 64.791 108.213 63.9502C107.801 62.945 107.801 61.6941 108.269 60.0971L101.037 66.061L84.6724 79.6529V101.688L138.295 59.2818C138.284 58.8175 138.344 58.3543 138.473 57.9081C138.884 56.4115 138.862 55.6521 138.217 55.7191V55.7079ZM161.29 62.8445C160.478 62.8445 159.121 63.9948 156.951 66.3067C154.003 69.4673 149.364 72.5275 146.906 73.1529L146.527 73.3539C146.124 73.5213 145.716 73.6777 145.304 73.823C144.636 74.0464 143.768 74.3144 142.767 74.5825C140.765 75.1297 138.273 75.6323 136.048 75.5765C134.999 75.5751 133.96 75.3703 132.988 74.9734C132.072 74.5944 131.339 73.8738 130.941 72.963C130.296 71.4106 130.552 69.2328 131.965 66.1392L84.6613 103.542V117H105.443L149.52 82.244C150.666 80.9708 152.39 79.2285 154.715 77.0507C160.945 71.2543 162.358 69.2551 162.358 66.2955C162.358 63.9948 162.102 62.8333 161.29 62.8333V62.8445ZM171.781 84.6228L168.01 88.3978C165.896 90.4081 162.125 92.8874 159.544 93.9484L159.032 94.1718L158.998 94.2277L158.887 94.3393C158.787 94.4175 158.743 94.4287 158.665 94.4622C157.634 94.8537 156.588 95.2002 155.527 95.5008C153.17 96.1896 150.746 96.6203 148.296 96.7852C147.138 96.8598 145.975 96.7581 144.848 96.4837C143.869 96.2673 143.005 95.6943 142.422 94.8754C141.888 94.049 141.733 92.9433 142.033 91.5807C142.272 90.6107 142.627 89.6732 143.09 88.7886L107.523 117H154.827L160.478 110.5C168.243 101.409 171.781 94.9089 171.781 89.3471V84.6228Z" fill="#00DF5E"/>
</svg>
