<svg width="104" height="104" viewBox="0 0 104 104" fill="none" xmlns="http://www.w3.org/2000/svg">
<path d="M0 52V0H104V104H0" fill="#00DF5E"/>
<path d="M22.802 52.182V56.42H36.322V94.9H45.916V56.42H59.436V52.26C59.436 49.92 59.436 48.022 59.332 47.97C59.332 47.892 51.09 47.866 41.08 47.866L22.88 47.944V52.208L22.802 52.182ZM83.564 47.84C86.216 48.464 88.244 49.66 90.064 51.558C91.026 52.598 92.456 54.418 92.56 54.886C92.56 55.042 88.062 58.084 85.332 59.774C85.228 59.852 84.812 59.41 84.396 58.734C83.044 56.81 81.666 55.978 79.508 55.822C76.388 55.614 74.308 57.252 74.308 59.982C74.308 60.814 74.464 61.282 74.776 61.958C75.478 63.388 76.778 64.246 80.808 66.014C88.244 69.212 91.468 71.318 93.418 74.334C95.628 77.714 96.122 83.018 94.64 86.996C92.976 91.338 88.92 94.276 83.122 95.238C81.302 95.55 77.142 95.498 75.192 95.16C71.032 94.38 67.054 92.3 64.61 89.622C63.648 88.582 61.802 85.8 61.906 85.618L62.894 84.994L66.794 82.732L69.732 81.016L70.408 81.926C71.266 83.278 73.19 85.098 74.308 85.722C77.688 87.464 82.212 87.23 84.448 85.202C85.41 84.318 85.826 83.382 85.826 82.082C85.826 80.886 85.644 80.34 85.046 79.43C84.214 78.286 82.55 77.35 77.87 75.27C72.488 72.982 70.2 71.526 68.068 69.29C66.846 67.938 65.728 65.832 65.208 64.09C64.818 62.582 64.688 58.89 65.052 57.408C66.17 52.208 70.096 48.568 75.712 47.528C77.532 47.164 81.822 47.32 83.616 47.788L83.564 47.84Z" fill="#333333"/>
</svg>
